#N canvas 178 22 1085 688 10;
#X declare -stdpath cyclone;
#X declare -stdpath list-abs;
#X declare -lib pcslib;
#X declare -stdpath pdlisp;
#X msg 243 111 rewind;
#X obj 61 128 textfile;
#X obj 61 150 unpack f s f f;
#X msg 136 371 add2 \$1;
#X msg 136 400;
#X msg 99 336 set;
#X obj 136 497 text set phrases;
#X obj 136 425 t a b;
#X obj 227 626 text define phrases;
#X msg 239 467 -1;
#X obj 61 223 tgl 15 0 empty empty empty 17 7 0 10 -262144 -1 -1 0
1;
#X obj 61 243 sel 0 1;
#X obj 136 316 f;
#X obj 80 285 t b b b;
#X obj 243 321 bng 15 250 50 0 empty empty empty 17 7 0 10 -262144
-1 -1;
#X msg 227 581 clear;
#X obj 136 345 change;
#X obj 61 49 tgl 15 0 empty empty empty 17 7 0 10 -262144 -1 -1 0 1
;
#X msg 193 145 0;
#X obj 50 605 declare -stdpath cyclone;
#X obj 167 449 counter;
#X obj 50 585 declare -stdpath list-abs;
#X obj 752 340 list-drip;
#X obj 716 207 textfile;
#X msg 864 244 0;
#X obj 716 171 bng 15 250 50 0 empty empty empty 17 7 0 10 -262144
-1 -1;
#X msg 864 194 rewind;
#X obj 50 625 declare -lib pcslib;
#X obj 193 170 s done-MIDI-FILE;
#X obj 61 27 r done-MIDI-FILE;
#X obj 921 261 s done-total-notes;
#X obj 716 91 tgl 15 0 empty empty empty 17 7 0 10 -262144 -1 -1 0
1;
#X obj 716 57 r done-total-notes;
#X obj 752 409 send note;
#X obj 705 458 send end_chord;
#X obj 864 138 sel 1;
#X obj 716 117 t a a;
#X obj 50 565 declare -stdpath pdlisp;
#X obj 487 33 tgl 15 0 empty empty Start/Stop 17 7 0 10 -262144 -1
-1 0 1;
#X obj 358 51 pd_2_lilipond original;
#X floatatom 176 473 5 0 0 0 - - -, f 5;
#X obj 182 51 openpanel;
#X obj 182 71 cyclone/prepend read;
#X obj 182 33 bng 15 250 50 0 empty empty Open/midi_2_qlist 17 7 0
10 -262144 -1 -1;
#X obj 61 201 > 600;
#X obj 61 69 metro 10;
#X msg 234 603 write phrases_Q-original.txt;
#X obj 358 26 r note;
#X msg 705 431 input pit -1 dur 24;
#X msg 857 82 read \$1;
#X obj 857 58 openpanel;
#X obj 857 34 bng 15 250 50 0 empty empty empty 17 7 0 10 -262144 -1
-1;
#X obj 705 378 change;
#X obj 716 145 metro 10;
#X obj 794 370 print;
#X obj 717 231 list split 2;
#X obj 701 260 unpack;
#X obj 705 404 t b;
#X obj 675 483 print --------------: PHRASE END;
#X floatatom 623 391 5 0 0 0 - - -, f 5;
#X obj 586 236 print;
#X obj 730 316 list;
#X obj 678 346 sel 0;
#X obj 701 282 t b a;
#X msg 644 297 -4;
#X obj 943 420 + 1;
#X obj 971 420 f;
#X msg 943 389 1;
#X msg 990 393 0;
#X floatatom 943 445 5 0 0 1 note_number - -, f 5;
#X obj 943 489 print;
#X obj 943 466 pack;
#X connect 0 0 1 0;
#X connect 0 0 14 0;
#X connect 1 0 2 0;
#X connect 1 1 18 0;
#X connect 1 1 13 0;
#X connect 2 0 44 0;
#X connect 2 2 12 1;
#X connect 3 0 4 0;
#X connect 4 0 7 0;
#X connect 5 0 4 0;
#X connect 7 0 6 0;
#X connect 7 1 20 0;
#X connect 9 0 6 2;
#X connect 10 0 11 0;
#X connect 11 0 12 0;
#X connect 11 1 13 0;
#X connect 12 0 16 0;
#X connect 13 0 12 0;
#X connect 13 1 5 0;
#X connect 13 2 4 0;
#X connect 14 0 5 0;
#X connect 14 0 20 2;
#X connect 15 0 8 0;
#X connect 16 0 3 0;
#X connect 17 0 45 0;
#X connect 18 0 28 0;
#X connect 20 0 6 1;
#X connect 20 0 40 0;
#X connect 22 0 33 0;
#X connect 22 0 54 0;
#X connect 22 0 67 0;
#X connect 23 0 55 0;
#X connect 23 1 24 0;
#X connect 24 0 30 0;
#X connect 25 0 23 0;
#X connect 26 0 23 0;
#X connect 26 0 24 0;
#X connect 26 0 64 0;
#X connect 26 0 68 0;
#X connect 29 0 17 0;
#X connect 31 0 36 0;
#X connect 32 0 31 0;
#X connect 35 0 26 0;
#X connect 36 0 53 0;
#X connect 36 1 35 0;
#X connect 38 0 39 1;
#X connect 41 0 42 0;
#X connect 42 0 1 0;
#X connect 43 0 41 0;
#X connect 44 0 10 0;
#X connect 45 0 1 0;
#X connect 46 0 8 0;
#X connect 47 0 39 0;
#X connect 48 0 34 0;
#X connect 49 0 23 0;
#X connect 50 0 49 0;
#X connect 51 0 50 0;
#X connect 52 0 57 0;
#X connect 53 0 25 0;
#X connect 55 0 56 0;
#X connect 55 1 61 1;
#X connect 56 0 63 0;
#X connect 57 0 48 0;
#X connect 57 0 58 0;
#X connect 61 0 22 0;
#X connect 62 1 52 0;
#X connect 63 0 61 0;
#X connect 63 1 62 0;
#X connect 64 0 52 0;
#X connect 65 0 66 0;
#X connect 65 0 69 0;
#X connect 66 0 65 1;
#X connect 67 0 65 0;
#X connect 68 0 65 1;
#X connect 69 0 71 0;
#X connect 71 0 70 0;
