#N canvas 302 316 876 676 10;
#X obj 370 208 *;
#N canvas 744 150 306 361 tempo 0;
#X obj 105 133 r ref-dur;
#X obj 76 190 /;
#X floatatom 105 155 5 0 0 0 - - -, f 5;
#X obj 32 94 t b f;
#X obj 32 138 /;
#X floatatom 76 212 5 0 0 0 - - -, f 5;
#X msg 32 116 60;
#X obj 32 160 * 1000;
#X obj 76 302 s time;
#X text 27 15 Quarter = 72;
#X obj 32 47 r tempo;
#X floatatom 32 69 5 0 0 0 - - -, f 5;
#X obj 76 252 int;
#X text 117 242 round to nearest integer;
#X obj 76 231 + 0.5;
#X floatatom 76 274 5 0 0 0 - - -, f 5;
#X connect 0 0 2 0;
#X connect 1 0 5 0;
#X connect 2 0 1 1;
#X connect 3 0 6 0;
#X connect 3 1 4 1;
#X connect 4 0 7 0;
#X connect 5 0 14 0;
#X connect 6 0 4 0;
#X connect 7 0 1 0;
#X connect 10 0 11 0;
#X connect 11 0 3 0;
#X connect 12 0 15 0;
#X connect 14 0 12 0;
#X connect 15 0 8 0;
#X restore 499 82 pd tempo;
#X obj 499 398 r ref-dur;
#X msg 499 420 refdur \$1;
#X obj 414 584 notes;
#X obj 385 168 r time;
#X floatatom 385 190 5 0 0 0 - - -, f 5;
#X obj 413 247 del;
#X obj 413 269 s compute;
#X obj 343 135 pow 2;
#X obj 343 186 t f f;
#X obj 370 230 t f f;
#X obj 500 449 r clear;
#X msg 500 471 clear;
#X obj 498 332 r write;
#X text 512 106 START;
#X text 517 240 STOP;
#N canvas 0 50 221 297 envelope 0;
#X obj 49 32 inlet;
#X floatatom 49 55 5 0 0 0 - - -, f 5;
#X msg 49 96 20;
#X obj 49 74 t b f;
#X msg 49 167 1 \$1;
#X obj 69 232 line~;
#X obj 156 142 -;
#X obj 156 164 abs;
#X msg 156 186 0 \$1;
#X obj 49 118 t f f f;
#X obj 68 141 pipe;
#X obj 69 254 outlet~;
#X connect 0 0 1 0;
#X connect 1 0 3 0;
#X connect 2 0 9 0;
#X connect 3 0 2 0;
#X connect 3 1 6 1;
#X connect 4 0 5 0;
#X connect 5 0 11 0;
#X connect 6 0 7 0;
#X connect 7 0 8 0;
#X connect 8 0 5 0;
#X connect 9 0 4 0;
#X connect 9 1 10 0;
#X connect 9 2 10 1;
#X connect 10 0 6 0;
#X restore 370 300 pd envelope;
#N canvas 0 50 450 300 oscil 0;
#X obj 74 52 mtof;
#X floatatom 74 74 5 0 0 0 - - -, f 5;
#X obj 74 93 osc~;
#X obj 108 142 *~;
#X obj 100 173 dac~;
#X obj 74 25 inlet;
#X obj 129 108 inlet~;
#X obj 139 172 throw~ audio;
#X connect 0 0 1 0;
#X connect 1 0 2 0;
#X connect 2 0 3 0;
#X connect 3 0 4 0;
#X connect 3 0 4 1;
#X connect 3 0 7 0;
#X connect 5 0 0 0;
#X connect 6 0 3 1;
#X restore 325 324 pd oscil;
#X obj 230 488 list append;
#X obj 230 510 t a b;
#X obj 293 407 r tempo;
#X obj 230 532 list trim;
#X msg 293 429 tmp 8 \$1;
#X msg 498 260 \; sw 0 \; write bang \;;
#X obj 265 40 nbx 2 25 -1e+37 1e+37 0 0 empty empty empty 0 -8 0 25
-262144 -1 -1 0 256;
#X obj 343 156 nbx 1 25 -1e+37 1e+37 0 0 empty empty empty 0 -8 0 25
-262144 -1 -1 0 256;
#X obj 230 328 pack f 2;
#X obj 230 83 t f f b;
#X obj 122 327 r end_chord;
#X msg 499 495 debug 0;
#X msg 343 113 2;
#X obj 367 496 r clef;
#X msg 230 350 input pit \$1 dur \$2 clf 3;
#X msg 497 126 \; pd dsp 1 \; ref-dur 32 \; tempo 80 \; clear bang
\; sw 1 \; compute bang \; clef clf 3;
#X obj 230 12 inlet;
#X obj 601 30 inlet;
#X obj 601 67 sel 1 0;
#X msg 498 356 title testing \, write original_queen;
#X connect 0 0 11 0;
#X connect 2 0 3 0;
#X connect 3 0 4 0;
#X connect 5 0 6 0;
#X connect 6 0 0 1;
#X connect 7 0 8 0;
#X connect 9 0 26 0;
#X connect 10 1 0 0;
#X connect 11 0 17 0;
#X connect 11 1 7 0;
#X connect 12 0 13 0;
#X connect 13 0 4 0;
#X connect 14 0 38 0;
#X connect 17 0 18 1;
#X connect 19 0 20 0;
#X connect 20 0 22 0;
#X connect 20 1 19 1;
#X connect 21 0 23 0;
#X connect 22 0 4 0;
#X connect 23 0 19 1;
#X connect 26 0 10 0;
#X connect 27 0 33 0;
#X connect 28 0 27 0;
#X connect 28 1 18 0;
#X connect 28 2 31 0;
#X connect 29 0 19 0;
#X connect 30 0 4 0;
#X connect 31 0 9 0;
#X connect 33 0 19 0;
#X connect 35 0 25 0;
#X connect 35 0 28 0;
#X connect 36 0 37 0;
#X connect 37 0 34 0;
#X connect 37 1 24 0;
#X connect 38 0 4 0;
