#N canvas 61 51 1085 688 10;
#X declare -stdpath cyclone;
#X declare -stdpath list-abs;
#X declare -lib pcslib;
#X declare -stdpath pdlisp;
#X msg 243 111 rewind;
#X obj 61 128 textfile;
#X obj 61 150 unpack f s f f;
#X msg 136 371 add2 \$1;
#X msg 136 400;
#X msg 99 336 set;
#X obj 136 497 text set phrases;
#X obj 136 425 t a b;
#X obj 227 626 text define phrases;
#X msg 239 467 -1;
#X obj 61 223 tgl 15 0 empty empty empty 17 7 0 10 -262144 -1 -1 0
1;
#X obj 61 243 sel 0 1;
#X obj 136 316 f;
#X obj 80 285 t b b b;
#X obj 243 321 bng 15 250 50 0 empty empty empty 17 7 0 10 -262144
-1 -1;
#X msg 227 581 clear;
#X obj 136 345 change;
#X obj 61 49 tgl 15 0 empty empty empty 17 7 0 10 -262144 -1 -1 0 1
;
#X msg 193 145 0;
#X obj 50 605 declare -stdpath cyclone;
#X obj 167 449 counter;
#X obj 50 585 declare -stdpath list-abs;
#X obj 716 399 list-drip;
#X obj 716 227 textfile;
#X obj 849 438 + 1;
#X obj 877 438 f;
#X msg 849 416 1;
#X msg 864 244 0;
#X obj 716 171 bng 15 250 50 0 empty empty empty 17 7 0 10 -262144
-1 -1;
#X msg 864 194 rewind;
#X obj 716 501 + 1;
#X obj 744 501 f;
#X msg 716 470 1;
#X msg 763 474 0;
#X floatatom 716 526 5 0 0 1 note_number - -, f 5;
#X floatatom 849 461 5 0 0 1 chord_number - -, f 5;
#X obj 731 332 list length;
#X obj 50 625 declare -lib pcslib;
#X obj 193 170 s done-MIDI-FILE;
#X obj 61 27 r done-MIDI-FILE;
#X obj 921 261 s done-total-notes;
#X obj 716 91 tgl 15 0 empty empty empty 17 7 0 10 -262144 -1 -1 0
1;
#X obj 716 57 r done-total-notes;
#N canvas 0 22 450 278 (subpatch) 0;
#X array contour 4 float 3;
#A 0 55 54 0 0;
#X coords 0 120 4 20 200 140 1 0 0;
#X restore 843 512 graph;
#X obj 747 307 send contour;
#X obj 747 283 prepend 0;
#X msg 731 354 \; contour resize \$1;
#X obj 769 446 send note;
#X obj 537 468 + 1;
#X obj 565 468 f;
#X msg 537 446 1;
#X msg 552 421 0;
#X obj 537 502 sel;
#X obj 564 578 send end_chord;
#X obj 552 396 r end_chord;
#X obj 716 570 print;
#X obj 716 429 t b a;
#X obj 537 525 t b b;
#X obj 537 551 bng 15 250 50 0 empty empty empty 17 7 0 10 -262144
-1 -1;
#X obj 716 547 pack;
#X obj 716 258 t a a a b b;
#X obj 864 138 sel 1;
#X obj 716 117 t a a;
#X obj 874 295 print -------------------;
#X obj 716 145 metro 100;
#X obj 50 565 declare -stdpath pdlisp;
#X obj 487 33 tgl 15 0 empty empty Start/Stop 17 7 0 10 -262144 -1
-1 0 1;
#X obj 358 51 pd_2_lilipond original;
#X floatatom 176 473 5 0 0 0 - - -, f 5;
#X obj 182 51 openpanel;
#X obj 182 71 cyclone/prepend read;
#X obj 182 33 bng 15 250 50 0 empty empty Open/midi_2_qlist 17 7 0
10 -262144 -1 -1;
#X obj 61 201 > 600;
#X obj 61 69 metro 10;
#X msg 234 603 write phrases_Q-original.txt;
#X msg 834 86 read phrases_Q-original.txt;
#X obj 358 26 r note;
#X msg 564 551 input pit -1 dur 24;
#X obj 607 308 send phrases;
#X obj 575 263 print;
#X connect 0 0 1 0;
#X connect 0 0 14 0;
#X connect 1 0 2 0;
#X connect 1 1 18 0;
#X connect 1 1 13 0;
#X connect 2 0 72 0;
#X connect 2 2 12 1;
#X connect 3 0 4 0;
#X connect 4 0 7 0;
#X connect 5 0 4 0;
#X connect 7 0 6 0;
#X connect 7 1 20 0;
#X connect 9 0 6 2;
#X connect 10 0 11 0;
#X connect 11 0 12 0;
#X connect 11 1 13 0;
#X connect 12 0 16 0;
#X connect 13 0 12 0;
#X connect 13 1 5 0;
#X connect 13 2 4 0;
#X connect 14 0 5 0;
#X connect 14 0 20 2;
#X connect 15 0 8 0;
#X connect 16 0 3 0;
#X connect 17 0 73 0;
#X connect 18 0 38 0;
#X connect 20 0 6 1;
#X connect 20 0 68 0;
#X connect 22 0 56 0;
#X connect 22 1 26 0;
#X connect 23 0 60 0;
#X connect 23 0 78 0;
#X connect 23 1 27 0;
#X connect 24 0 25 0;
#X connect 24 0 35 0;
#X connect 25 0 24 1;
#X connect 26 0 24 0;
#X connect 27 0 24 1;
#X connect 27 0 40 0;
#X connect 28 0 23 0;
#X connect 29 0 23 0;
#X connect 29 0 27 0;
#X connect 30 0 31 0;
#X connect 30 0 34 0;
#X connect 31 0 30 1;
#X connect 32 0 30 0;
#X connect 33 0 30 1;
#X connect 34 0 59 0;
#X connect 36 0 46 0;
#X connect 36 0 52 1;
#X connect 39 0 17 0;
#X connect 41 0 62 0;
#X connect 42 0 41 0;
#X connect 45 0 44 0;
#X connect 48 0 49 0;
#X connect 48 0 52 0;
#X connect 49 0 48 1;
#X connect 50 0 48 0;
#X connect 51 0 48 1;
#X connect 52 0 57 0;
#X connect 54 0 51 0;
#X connect 56 0 32 0;
#X connect 56 0 50 0;
#X connect 56 1 47 0;
#X connect 56 1 59 1;
#X connect 57 0 58 0;
#X connect 57 1 77 0;
#X connect 59 0 55 0;
#X connect 60 0 22 0;
#X connect 60 1 36 0;
#X connect 60 2 45 0;
#X connect 60 3 33 0;
#X connect 60 4 63 0;
#X connect 61 0 29 0;
#X connect 62 0 64 0;
#X connect 62 1 61 0;
#X connect 64 0 28 0;
#X connect 66 0 67 1;
#X connect 69 0 70 0;
#X connect 70 0 1 0;
#X connect 71 0 69 0;
#X connect 72 0 10 0;
#X connect 73 0 1 0;
#X connect 74 0 8 0;
#X connect 75 0 23 0;
#X connect 76 0 67 0;
#X connect 77 0 53 0;
