#N canvas 529 22 823 305 10;
#X declare -stdpath list-abs;
#X declare -lib pcslib;
#X declare -stdpath cyclone;
#N canvas 0 22 450 278 (subpatch) 0;
#X array post_lisp 4 float 3;
#A 0 53 60 60 53;
#X coords 0 80 4 40 80 50 1 0 0;
#X restore 518 161 graph;
#X obj 17 12 declare -stdpath list-abs;
#N canvas 0 22 450 278 (subpatch) 0;
#X array original 4 float 3;
#A 0 55 54 56 53;
#X coords 0 80 4 40 80 50 1 0 0;
#X restore 518 30 graph;
#X obj 17 33 declare -lib pcslib;
#X obj 289 84 text define split-chords;
#X msg 289 19 clear;
#N canvas 0 22 450 278 (subpatch) 0;
#X array harmonic_structure 477 float 3;
#A 0 0 4 5 6 0 4 5 6 0 4 5 6 0 1 2 6 0 4 5 6 0 1 2 6 0 1 2 6 0 1 4
6 0 1 2 6 0 1 2 6 0 4 5 6 0 4 5 6 0 1 4 6 0 1 2 6 0 1 2 6 0 2 5 6 0
4 5 6 0 2 5 6 0 4 5 6 0 2 5 6 0 4 5 6 0 1 4 6 0 4 5 6 0 1 4 6 0 1 2
6 0 2 5 6 0 1 4 6 0 2 5 6 0 1 4 6 0 1 4 6 0 2 5 6 0 2 5 6 0 1 2 5 0
1 4 6 0 1 4 6 0 3 4 5 0 1 4 6 0 1 2 5 0 1 4 6 0 3 4 5 0 2 5 6 0 3 4
5 0 1 4 6 0 1 2 5 0 2 5 6 0 1 2 5 0 3 4 5 0 3 4 5 0 3 4 5 0 3 4 5 0
1 2 5 0 3 4 5 0 4 6 7 0 1 2 5 0 1 2 5 0 1 3 7 0 3 4 5 0 1 3 7 0 1 2
5 0 4 6 7 0 3 4 5 0 4 6 7 0 1 2 5 0 4 6 7 0 3 4 5 0 1 3 7 0 1 3 7 0
1 3 7 0 4 6 7 0 4 6 7 0 1 3 7 0 4 6 7 0 2 6 7 0 4 6 7 0 4 6 7 0 2 6
7 0 1 3 7 0 1 5 7 0 4 6 7 0 2 6 7 0 4 6 7 0 2 6 7 0 4 6 7 0 2 6 7 0
1 3 7 0 1 5 7 0 1 5 7 0 2 6 7 0 2 6 7 0 2 6 7 0 1 5 7 0 1 5 7 0 4 5
7 0 1 5 7 0 1 5 7 0 4 5 7 0 1 5 7 0 2 3 7 0 1 5 7 0 4 5 7 0 1 5 7 0
4 5 7 0 1 5 7 0 4 5 7 0 2 6 7 0 2 3 7 0 4 5 7 0 4 5 7 0 1 5 7 0 2 3
7 0 4 5 7 0 2 3 7 0 2 3 7 0 4 5 7 0 4 5 7 0 2 3 7 0 4 5 7 0 4 5 7 0
2 3 7 0;
#X coords 0 0 477 11 100 70 1 0 0;
#X restore 620 35 graph;
#X obj 17 78 r phrases;
#X obj 182 83 bng 15 250 50 0 empty empty RESET 17 7 0 10 -262144 -1
-1;
#X msg 306 62 write splitte-chords.txt;
#X msg 289 112 clear;
#X msg 301 134 read harm-struct.txt;
#X msg 306 155 write harm-struct.txt;
#X obj 289 177 text define harm-struct;
#X obj 17 175 tgl 15 0 empty stop-contour empty 17 7 0 10 -262144 -1
-1 0 1;
#X obj 17 132 tgl 15 0 empty stop-HS empty 17 7 0 10 -262144 -1 -1
0 1;
#N canvas 0 22 450 278 (subpatch) 0;
#X array new-set 4 float 3;
#A 0 54 58 60 53;
#X coords 0 80 4 40 80 50 1 0 0;
#X restore 518 95 graph;
#X obj 17 52 declare -stdpath cyclone;
#X msg 301 41 read splitte-chords-NO_REPEATS.txt;
#X msg 290 201 clear;
#X obj 290 266 text define contourchords;
#X msg 302 223 read contourchords.txt;
#X msg 307 244 write contourchords.txt;
#X obj 17 221 tgl 15 0 empty stop-2-lilipond empty 17 7 0 10 -262144
-1 -1 0 1;
#N canvas 0 22 489 468 creates_lillypond 0;
#X obj 88 120 +;
#X obj 112 120 f;
#X msg 88 83 1;
#X obj 88 145 - 1;
#X obj 42 48 sel 0;
#X msg 42 69 0;
#X obj 88 188 text get contourchords;
#X obj 88 209 list split 1;
#X obj 138 292 list-drip;
#X obj 88 316 change;
#X obj 88 341 t b;
#X obj 255 299 tgl 15 0 empty empty Start/Stop 17 7 0 10 -262144 -1
-1 0 1;
#X obj 88 390 send end_chord;
#X msg 88 363 input pit -1 dur 24;
#X obj 138 258 list;
#X obj 88 234 t b a;
#X obj 256 388 print;
#X obj 314 205 sel 2;
#X obj 314 236 bng 35 250 50 0 empty empty DONE 6 17 0 10 -262144 -1
-1;
#X obj 314 277 s stop-2-lilipond;
#X obj 88 9 inlet;
#X obj 88 48 metro 1;
#X obj 138 324 pd_2_lilipond CONTOUR;
#X connect 0 0 1 0;
#X connect 0 0 3 0;
#X connect 1 0 0 1;
#X connect 2 0 0 0;
#X connect 3 0 6 0;
#X connect 4 0 5 0;
#X connect 5 0 0 1;
#X connect 5 0 9 0;
#X connect 6 0 7 0;
#X connect 6 1 17 0;
#X connect 7 0 15 0;
#X connect 7 1 14 1;
#X connect 8 0 16 0;
#X connect 8 0 22 0;
#X connect 9 0 10 0;
#X connect 10 0 13 0;
#X connect 11 0 22 1;
#X connect 13 0 12 0;
#X connect 13 0 16 0;
#X connect 14 0 8 0;
#X connect 15 0 14 0;
#X connect 15 1 9 0;
#X connect 17 0 18 0;
#X connect 18 0 19 0;
#X connect 20 0 11 0;
#X connect 20 0 4 0;
#X connect 20 0 21 0;
#X connect 21 0 2 0;
#X restore 17 242 pd creates_lillypond score;
#N canvas 0 22 727 706 creates_the_new_phrases 0;
#X msg 270 351 reload;
#X obj 159 338 list append;
#X obj 173 422 prepend 0;
#X obj 173 441 send post_lisp;
#X obj 21 269 prepend 0;
#X obj 21 291 send original;
#X obj 50 218 text get split-chords;
#X obj 50 239 list split 2;
#X obj 50 124 +;
#X obj 74 124 f;
#X msg 50 100 1;
#X obj 50 149 - 1;
#X obj 129 77 sel 0;
#X msg 129 98 0;
#X obj 188 218 text get harm-struct;
#X obj 188 239 list split 1;
#X obj 118 264 prepend set;
#X msg 118 286;
#X obj 306 256 prepend set;
#X msg 306 280 54 58 60 53;
#X obj 50 176 t a a;
#X obj 389 256 prepend 0;
#X obj 389 278 send new-set;
#X text 251 547 BIG PROBLEM WITH REAPETED NOTES AND LISP!!;
#X obj 159 391 pdlisp contour contour;
#X text 251 564 still 4 with repeated notes;
#X obj 494 235 sel 2;
#X obj 494 266 bng 35 250 50 0 empty empty DONE 6 17 0 10 -262144 -1
-1;
#X obj 494 307 s stop-contour;
#X obj 50 524 list prepend;
#X obj 50 332 unpack;
#X obj 50 486 list;
#X obj 50 400 t b a;
#X obj 50 557 t a b;
#X obj 93 598 +;
#X obj 117 598 f;
#X msg 93 574 1;
#X obj 93 623 - 1;
#X obj 50 647 text set contourchords;
#X obj 50 25 inlet;
#X obj 50 78 metro 1;
#X connect 0 0 24 0;
#X connect 1 0 24 0;
#X connect 2 0 3 0;
#X connect 4 0 5 0;
#X connect 6 0 7 0;
#X connect 7 0 30 0;
#X connect 7 1 16 0;
#X connect 7 1 1 0;
#X connect 7 1 4 0;
#X connect 8 0 9 0;
#X connect 8 0 11 0;
#X connect 9 0 8 1;
#X connect 10 0 8 0;
#X connect 11 0 20 0;
#X connect 12 0 13 0;
#X connect 13 0 8 1;
#X connect 13 0 34 1;
#X connect 14 0 15 0;
#X connect 14 1 26 0;
#X connect 15 1 18 0;
#X connect 15 1 1 1;
#X connect 15 1 21 0;
#X connect 16 0 17 0;
#X connect 18 0 19 0;
#X connect 20 0 6 0;
#X connect 20 1 14 0;
#X connect 21 0 22 0;
#X connect 24 0 2 0;
#X connect 24 0 31 1;
#X connect 26 0 27 0;
#X connect 27 0 28 0;
#X connect 29 0 33 0;
#X connect 30 0 32 0;
#X connect 31 0 29 0;
#X connect 32 0 31 0;
#X connect 32 1 29 1;
#X connect 33 0 38 0;
#X connect 33 1 36 0;
#X connect 34 0 35 0;
#X connect 34 0 37 0;
#X connect 35 0 34 1;
#X connect 36 0 34 0;
#X connect 37 0 38 1;
#X connect 39 0 12 0;
#X connect 39 0 40 0;
#X connect 40 0 10 0;
#X restore 17 198 pd creates_the_new_phrases with contour;
#N canvas 134 22 779 852 creates_chords 0;
#X obj 101 159 text get split-chords;
#X obj 101 226 unpack;
#X obj 101 180 list split 2;
#X obj 294 176 sel 2;
#X obj 294 207 bng 35 250 50 0 empty empty DONE 6 17 0 10 -262144 -1
-1;
#X text 111 139 outputs: phrase \, min note of group \, chord;
#X obj 222 425 +;
#X obj 246 425 f;
#X msg 222 401 1;
#X floatatom 253 450 5 0 0 0 - - -, f 5;
#X obj 195 227 list length;
#X obj 222 380 until;
#X obj 101 97 +;
#X obj 125 97 f;
#X msg 101 73 1;
#X obj 101 122 - 1;
#X obj 180 50 sel 0;
#X msg 180 71 0;
#X obj 222 468 tabread harmonic_structure;
#X obj 306 565 +;
#X obj 330 565 f;
#X msg 306 546 1;
#X msg 411 477 0;
#X msg 189 613 add2 \$1;
#X msg 189 647;
#X obj 306 586 sel;
#X obj 306 606 bng 35 250 50 0 empty empty DONE 6 17 0 10 -262144 -1
-1;
#X msg 284 413 set, f 4;
#X obj 195 251 t a a;
#X obj 195 207 t a b b;
#X obj 162 529 t b a;
#X obj 110 683 list-math +;
#X obj 101 709 list append;
#X obj 110 664 list;
#X obj 134 593 t b a;
#X obj 101 730 t a b;
#X obj 140 771 +;
#X obj 164 771 f;
#X msg 140 747 1;
#X obj 140 796 - 1;
#X obj 101 820 text set harm-struct;
#X obj 101 51 metro 5;
#X obj 101 7 inlet;
#X obj 101 29 t a a;
#X obj 294 248 s stop-HS;
#X obj 195 313 sel 0;
#X obj 195 279 expr if($f1 == 4 \, 4 \, 0) \; if($f1 < 4 \, $f1 \,
0) \;;
#X obj 162 491 spigot;
#X msg 195 335 0;
#X obj 222 334 t a b;
#X msg 249 359 1;
#X obj 520 376 until;
#X obj 493 309 sel 0;
#X msg 493 331 0;
#X obj 520 330 t a b;
#X obj 460 512 spigot;
#X msg 546 353 1;
#X obj 234 80 s reset-create-chords;
#X obj 248 722 r reset-create-chords;
#X obj 317 364 r reset-create-chords;
#X obj 520 413 uni.rn 4;
#X obj 520 435 + 8;
#X connect 0 0 2 0;
#X connect 0 1 3 0;
#X connect 1 0 32 0;
#X connect 1 1 34 0;
#X connect 2 0 1 0;
#X connect 2 1 29 0;
#X connect 3 0 4 0;
#X connect 4 0 44 0;
#X connect 6 0 7 0;
#X connect 6 0 18 0;
#X connect 6 0 9 0;
#X connect 7 0 6 1;
#X connect 8 0 6 0;
#X connect 10 0 28 0;
#X connect 11 0 8 0;
#X connect 12 0 13 0;
#X connect 12 0 15 0;
#X connect 13 0 12 1;
#X connect 14 0 12 0;
#X connect 15 0 0 0;
#X connect 16 0 17 0;
#X connect 17 0 12 1;
#X connect 17 0 57 0;
#X connect 18 0 47 0;
#X connect 19 0 20 0;
#X connect 19 0 25 0;
#X connect 20 0 19 1;
#X connect 21 0 19 0;
#X connect 22 0 19 1;
#X connect 23 0 24 0;
#X connect 24 0 33 1;
#X connect 25 0 26 0;
#X connect 26 0 24 0;
#X connect 27 0 24 0;
#X connect 28 0 46 0;
#X connect 28 1 25 1;
#X connect 29 0 10 0;
#X connect 29 1 27 0;
#X connect 29 2 22 0;
#X connect 30 0 21 0;
#X connect 30 1 23 0;
#X connect 31 0 32 1;
#X connect 32 0 35 0;
#X connect 33 0 31 0;
#X connect 34 0 33 0;
#X connect 34 1 31 1;
#X connect 35 0 40 0;
#X connect 35 1 38 0;
#X connect 36 0 37 0;
#X connect 36 0 39 0;
#X connect 37 0 36 1;
#X connect 38 0 36 0;
#X connect 39 0 40 1;
#X connect 41 0 14 0;
#X connect 42 0 43 0;
#X connect 43 0 41 0;
#X connect 43 1 16 0;
#X connect 45 0 48 0;
#X connect 45 1 49 0;
#X connect 46 0 45 0;
#X connect 46 1 52 0;
#X connect 47 0 30 0;
#X connect 48 0 47 1;
#X connect 49 0 11 0;
#X connect 49 1 50 0;
#X connect 50 0 47 1;
#X connect 51 0 60 0;
#X connect 52 0 53 0;
#X connect 52 1 54 0;
#X connect 53 0 55 1;
#X connect 54 0 51 0;
#X connect 54 1 56 0;
#X connect 55 0 30 0;
#X connect 56 0 55 1;
#X connect 58 0 36 1;
#X connect 59 0 6 1;
#X connect 60 0 61 0;
#X connect 61 0 55 0;
#X restore 17 151 pd creates_chords with harmonic struct;
#N canvas 50 105 687 459 split_phrases 0;
#N canvas 702 154 565 523 splitter 0;
#X obj 117 372 list;
#X obj 59 399 t b a;
#X obj 104 333 list split 4;
#X obj 179 86 list length;
#X floatatom 396 206 5 0 0 1 excedente - -, f 5;
#X floatatom 396 159 5 0 0 1 total - -, f 5;
#X obj 300 189 mod 4;
#X obj 179 146 / 4;
#X floatatom 396 183 5 0 0 1 grupos - -, f 5;
#X obj 179 166 int;
#X obj 104 35 inlet;
#X obj 223 234 -;
#X obj 179 112 t a a a;
#X obj 166 262 list split;
#X obj 104 301 list;
#X obj 104 58 t b a a;
#X obj 86 462 outlet;
#X obj 173 354 list;
#X connect 0 0 2 0;
#X connect 1 0 0 0;
#X connect 1 1 16 0;
#X connect 2 0 1 0;
#X connect 2 1 0 1;
#X connect 2 2 17 0;
#X connect 3 0 12 0;
#X connect 6 0 4 0;
#X connect 6 0 11 1;
#X connect 7 0 9 0;
#X connect 9 0 8 0;
#X connect 10 0 15 0;
#X connect 11 0 13 1;
#X connect 12 0 7 0;
#X connect 12 1 5 0;
#X connect 12 1 11 0;
#X connect 12 2 6 0;
#X connect 13 0 14 1;
#X connect 13 1 17 1;
#X connect 14 0 2 0;
#X connect 15 0 14 0;
#X connect 15 1 13 0;
#X connect 15 2 3 0;
#X connect 17 0 16 0;
#X restore 193 53 pd splitter;
#X obj 292 162 list-minmax;
#X obj 116 380 text set split-chords;
#X obj 116 290 t a b;
#X obj 157 331 +;
#X obj 181 331 f;
#X msg 157 307 1;
#X obj 157 356 - 1;
#X obj 116 265 list prepend;
#X obj 227 144 +;
#X obj 251 144 f;
#X msg 227 120 1;
#X msg 459 127 0;
#X obj 227 169 - 1;
#X text 249 301 splits the phrases into groups of 4 and finally the
excedent if any. It prepends the phrase number \, the min of the group
and finally the chord;
#X text 457 109 reset;
#X obj 212 222 pack f f;
#X obj 459 50 inlet reset;
#X obj 193 10 inlet;
#X obj 58 313 print;
#X obj 193 76 t a b a;
#X obj 193 31 t a b;
#X obj 212 194 i;
#X connect 0 0 20 0;
#X connect 1 0 16 1;
#X connect 3 0 2 0;
#X connect 3 0 19 0;
#X connect 3 1 6 0;
#X connect 4 0 5 0;
#X connect 4 0 7 0;
#X connect 5 0 4 1;
#X connect 6 0 4 0;
#X connect 7 0 2 1;
#X connect 8 0 3 0;
#X connect 9 0 10 0;
#X connect 9 0 13 0;
#X connect 10 0 9 1;
#X connect 11 0 9 0;
#X connect 12 0 9 1;
#X connect 12 0 4 1;
#X connect 13 0 22 1;
#X connect 16 0 8 1;
#X connect 17 0 12 0;
#X connect 18 0 21 0;
#X connect 20 0 8 0;
#X connect 20 1 22 0;
#X connect 20 2 1 0;
#X connect 21 0 0 0;
#X connect 21 1 11 0;
#X connect 22 0 16 0;
#X restore 17 104 pd split_phrases into groups;
#N canvas 0 22 829 352 harmonic 0;
#X obj 58 270 prepend 0;
#X obj 58 310 send harmonic_structure;
#X msg 130 282 const 0;
#X obj 209 275 list length;
#X floatatom 209 309 5 0 0 0 - - -, f 5;
#X msg 58 44 0 4 5 6 0 4 5 6 0 4 5 6 0 1 2 6 0 4 5 6 0 1 2 6 0 1 2
6 0 1 4 6 0 1 2 6 0 1 2 6 0 4 5 6 0 4 5 6 0 1 4 6 0 1 2 6 0 1 2 6 0
2 5 6 0 4 5 6 0 2 5 6 0 4 5 6 0 2 5 6 0 4 5 6 0 1 4 6 0 4 5 6 0 1 4
6 0 1 2 6 0 2 5 6 0 1 4 6 0 2 5 6 0 1 4 6 0 1 4 6 0 2 5 6 0 2 5 6 0
1 2 5 0 1 4 6 0 1 4 6 0 3 4 5 0 1 4 6 0 1 2 5 0 1 4 6 0 3 4 5 0 2 5
6 0 3 4 5 0 1 4 6 0 1 2 5 0 2 5 6 0 1 2 5 0 3 4 5 0 3 4 5 0 3 4 5 0
3 4 5 0 1 2 5 0 3 4 5 0 4 6 7 0 1 2 5 0 1 2 5 0 1 3 7 0 3 4 5 0 1 3
7 0 1 2 5 0 4 6 7 0 3 4 5 0 4 6 7 0 1 2 5 0 4 6 7 0 3 4 5 0 1 3 7 0
1 3 7 0 1 3 7 0 4 6 7 0 4 6 7 0 1 3 7 0 4 6 7 0 2 6 7 0 4 6 7 0 4 6
7 0 2 6 7 0 1 3 7 0 1 5 7 0 4 6 7 0 2 6 7 0 4 6 7 0 2 6 7 0 4 6 7 0
2 6 7 0 1 3 7 0 1 5 7 0 1 5 7 0 2 6 7 0 2 6 7 0 2 6 7 0 1 5 7 0 1 5
7 0 4 5 7 0 1 5 7 0 1 5 7 0 4 5 7 0 1 5 7 0 2 3 7 0 1 5 7 0 4 5 7 0
1 5 7 0 4 5 7 0 1 5 7 0 4 5 7 0 2 6 7 0 2 3 7 0 4 5 7 0 4 5 7 0 1 5
7 0 2 3 7 0 4 5 7 0 2 3 7 0 2 3 7 0 4 5 7 0 4 5 7 0 2 3 7 0 4 5 7 0
4 5 7 0 2 3 7;
#X text 431 51 harmonic structure created with the desired pcs and
lisp;
#X connect 0 0 1 0;
#X connect 2 0 1 0;
#X connect 3 0 4 0;
#X connect 5 0 0 0;
#X connect 5 0 3 0;
#X restore 621 120 pd harmonic structure from LISP;
#X connect 5 0 4 0;
#X connect 7 0 27 0;
#X connect 8 0 27 1;
#X connect 9 0 4 0;
#X connect 10 0 13 0;
#X connect 11 0 13 0;
#X connect 12 0 13 0;
#X connect 14 0 25 0;
#X connect 15 0 26 0;
#X connect 18 0 4 0;
#X connect 19 0 20 0;
#X connect 21 0 20 0;
#X connect 22 0 20 0;
#X connect 23 0 24 0;
