#N canvas 248 22 1105 808 10;
#X declare -stdpath list-abs;
#X declare -lib pcslib;
#X obj 269 457 pcs_pf;
#X obj 235 355 text get split-chords;
#X obj 235 297 +;
#X obj 259 297 f;
#X msg 235 273 1;
#X obj 235 322 - 1;
#X msg 270 272 0;
#X obj 542 64 declare -stdpath list-abs;
#X obj 269 409 list-math % 12;
#X obj 235 381 list split 2;
#X text 102 38 4-4;
#X text 90 59 4-z15;
#X text 90 80 4-z29;
#X text 96 101 4-16;
#X msg 127 37 0 1 2 5 -1 0 3 4 5 -1;
#X msg 127 58 0 1 4 6 -1 0 2 5 6 -1;
#X msg 127 79 0 1 3 7 -1 0 4 6 7 -1;
#X msg 127 100 0 1 5 7 -1 0 2 6 7 -1;
#X obj 542 85 declare -lib pcslib;
#N canvas 0 22 652 656 anal_ 0;
#X obj 213 353 pcs_pf;
#X msg 168 461 reset;
#X msg 75 497 SIM;
#X obj 168 531 pcs_sim2;
#X obj 213 291 list;
#X obj 234 37 inlet;
#X obj 234 72 t a b b;
#X msg 253 93 8;
#X obj 253 116 until;
#X obj 253 143 t b b b b;
#X obj 324 514 pcs_pf;
#X msg 324 249 0 1 2 5;
#X msg 334 286 0 3 4 5;
#X msg 353 317 0 1 4 6;
#X msg 368 352 0 2 5 6;
#X msg 384 385 0 1 3 7;
#X msg 399 418 0 4 6 7;
#X msg 412 449 0 1 5 7;
#X msg 420 477 0 2 6 7;
#X obj 324 217 sel 1 2 3 4 5 6 7 8;
#X msg 324 166 1;
#X obj 324 188 +;
#X obj 351 188 f;
#X msg 360 164 0;
#X obj 168 566 outlet;
#X connect 0 0 3 1;
#X connect 1 0 3 0;
#X connect 2 0 3 0;
#X connect 3 0 24 0;
#X connect 4 0 0 0;
#X connect 5 0 6 0;
#X connect 6 0 4 1;
#X connect 6 1 7 0;
#X connect 6 2 23 0;
#X connect 7 0 8 0;
#X connect 8 0 9 0;
#X connect 9 0 2 0;
#X connect 9 1 4 0;
#X connect 9 2 20 0;
#X connect 9 3 1 0;
#X connect 10 0 3 1;
#X connect 11 0 10 0;
#X connect 12 0 10 0;
#X connect 13 0 10 0;
#X connect 14 0 10 0;
#X connect 15 0 10 0;
#X connect 16 0 10 0;
#X connect 17 0 10 0;
#X connect 18 0 10 0;
#X connect 19 0 11 0;
#X connect 19 1 12 0;
#X connect 19 2 13 0;
#X connect 19 3 14 0;
#X connect 19 4 15 0;
#X connect 19 5 16 0;
#X connect 19 6 17 0;
#X connect 19 7 18 0;
#X connect 20 0 21 0;
#X connect 21 0 22 0;
#X connect 21 0 19 0;
#X connect 22 0 21 1;
#X connect 23 0 21 1;
#X restore 101 229 pd anal_;
#X msg 101 194 5 11 2 6;
#X floatatom 103 255 5 0 0 0 - - -, f 5;
#X obj 102 302 print;
#X msg 353 134 5 11 2 6;
#X obj 241 219 tgl 15 0 empty empty empty 17 7 0 10 -262144 -1 -1 0
1;
#X obj 554 37 text define split-chords;
#X msg 574 14 read splitte-chords-NO_REPEATS.txt;
#X msg 365 478 -4;
#X obj 269 433 t a b;
#X obj 235 251 metro 1;
#X obj 529 479 bng 15 250 50 0 empty empty empty 17 7 0 10 -262144
-1 -1;
#X obj 533 502 print;
#N canvas 706 89 954 673 anal_ 0;
#X obj 213 353 pcs_pf;
#X msg 168 461 reset;
#X obj 168 531 pcs_sim2;
#X obj 213 291 list;
#X obj 234 37 inlet;
#X obj 234 72 t a b b;
#X msg 253 93 8;
#X obj 253 116 until;
#X obj 253 138 t b b b b;
#X obj 324 514 pcs_pf;
#X msg 324 249 0 1 2 5;
#X msg 334 286 0 3 4 5;
#X msg 353 317 0 1 4 6;
#X msg 368 352 0 2 5 6;
#X msg 384 385 0 1 3 7;
#X msg 399 418 0 4 6 7;
#X msg 412 449 0 1 5 7;
#X msg 420 477 0 2 6 7;
#X obj 324 217 sel 1 2 3 4 5 6 7 8;
#X msg 324 166 1;
#X obj 324 188 +;
#X obj 351 188 f;
#X msg 360 164 0;
#X obj 168 587 outlet;
#X msg 280 44 5 11 2 6;
#X obj 169 562 pack;
#X text 546 42 rp = Forte's rp relation;
#X text 546 53 r0 = Forte's r0 relation;
#X text 546 64 r1 = Forte's r1 relation;
#X text 546 76 r2 = Forte's r2 relation;
#X text 546 88 SIM = Morris's SIM relation;
#X text 546 99 ASIM = Morris's ASIM relation;
#X text 547 111 ICVSIM = Isaacson's ICVSIM relation;
#X text 547 124 OI = Babbit's Order Inversions;
#X text 547 136 DIS = Morris's Displacement measure;
#X text 547 148 SCAT = Morris's Scattering measure;
#X text 548 160 CC = Correlation Coefficient;
#X text 548 171 OPSC w = Di Liscia's ordered PCS measure;
#X text 549 182 w is a weighting coefficient ranging;
#X text 550 194 from 0 to 1 w=0 produces PC similarity;
#X text 552 205 evaluation only \, w=1 produces Intervalic;
#X text 552 216 similarity evaluation only.;
#X msg 76 497 DIS;
#X connect 0 0 2 1;
#X connect 1 0 2 0;
#X connect 2 0 25 0;
#X connect 3 0 0 0;
#X connect 4 0 5 0;
#X connect 5 0 3 1;
#X connect 5 1 6 0;
#X connect 5 2 22 0;
#X connect 6 0 7 0;
#X connect 7 0 8 0;
#X connect 8 0 42 0;
#X connect 8 1 3 0;
#X connect 8 2 19 0;
#X connect 8 3 1 0;
#X connect 9 0 2 1;
#X connect 10 0 9 0;
#X connect 11 0 9 0;
#X connect 12 0 9 0;
#X connect 13 0 9 0;
#X connect 14 0 9 0;
#X connect 15 0 9 0;
#X connect 16 0 9 0;
#X connect 17 0 9 0;
#X connect 18 0 10 0;
#X connect 18 1 11 0;
#X connect 18 2 12 0;
#X connect 18 3 13 0;
#X connect 18 4 14 0;
#X connect 18 5 15 0;
#X connect 18 6 16 0;
#X connect 18 7 17 0;
#X connect 19 0 20 0;
#X connect 20 0 21 0;
#X connect 20 0 18 0;
#X connect 20 0 25 1;
#X connect 21 0 20 1;
#X connect 22 0 20 1;
#X connect 24 0 5 0;
#X connect 25 0 23 0;
#X connect 42 0 2 0;
#X restore 269 494 pd anal_;
#X obj 428 372 sel 2;
#X obj 428 399 bng 15 250 50 0 empty empty empty 17 7 0 10 -262144
-1 -1;
#X msg 107 409 10 11 9 7;
#X text 610 669 <- like cyclone/peak;
#X obj 420 523 list split 1;
#X msg 577 625 -4;
#X obj 419 692 sel -4;
#X floatatom 552 783 5 0 0 0 - - -, f 5;
#X obj 420 579 i;
#X obj 420 550 t b a;
#X obj 379 762 pack;
#X obj 420 604 sel 8;
#X obj 467 591 print;
#X obj 368 802 print --;
#X floatatom 440 637 5 0 0 0 - - -, f 5;
#X floatatom 467 730 5 0 0 0 - - -, f 5;
#X obj 419 666 expr if($f1 > $f2 \, $f1 \, $f2);
#X obj 556 761 t a a;
#X text 511 208 fibonacci-transitions;
#X msg 578 279 0 1 2 6 0 1 2 6 0 4 5 6 0 1 2 6 0 4 5 6 0 1 2 6 0 4
5 6 0 1 2 6 0 4 5 6 0 4 5 6 0 4 5 6 0 2 3 7 0 4 5 6 0 2 3 7 0 1 2 6
0 4 5 6 0 2 3 7 0 1 2 6 0 2 3 7 0 2 3 7 0 4 5 6 0 4 5 7 0 1 2 6 0 2
3 7 0 4 5 6 0 4 5 7 0 2 3 7 0 1 2 6 0 4 5 7 0 4 5 6 0 4 5 7 0 1 2 6
0 4 5 7 0 1 2 5 0 4 5 7 0 4 5 6 0 1 2 5 0 4 5 7 0 4 5 6 0 1 2 5 0 1
2 5 0 4 5 6 0 1 2 5 0 2 3 7 0 3 4 5 0 4 5 6 0 1 2 5 0 3 4 5 0 2 3 7
0 1 2 5 0 4 5 6 0 3 4 5 0 2 3 7 0 3 4 5 0 3 4 5 0 1 4 6 0 2 3 7 0 3
4 5 0 1 4 6 0 2 3 7 0 3 4 5 0 1 4 6 0 4 5 7 0 1 4 6 0 2 3 7 0 1 4 6
0 4 5 7 0 2 5 6 0 1 4 6 0 2 3 7 0 2 5 6 0 4 5 7 0 2 5 6 0 4 5 7 0 2
5 6 0 2 5 6 0 1 3 7 0 4 5 7 0 2 5 6 0 1 3 7 0 1 2 5 0 1 3 7 0 1 3 7
0 4 5 7 0 1 3 7 0 1 2 5 0 4 6 7 0 4 5 7 0 1 3 7 0 4 6 7 0 1 2 5 0 4
6 7 0 1 2 5 0 4 6 7 0 1 2 5 0 4 6 7 0 1 5 7 0 4 6 7 0 3 4 5 0 1 5 7
0 1 5 7 0 1 2 5 0 1 5 7 0 1 5 7 0 3 4 5 0 2 6 7 0 1 2 5 0 1 5 7 0 3
4 5 0 2 6 7 0 2 6 7 0 3 4 5 0 2 6 7 0 3 4 5 0 1 5 7 0 1 4 6 0 2 6 7
0 2 6 7;
#X obj 696 546 prepend 0;
#X obj 711 593 send harm-struct;
#N canvas 0 22 450 278 (subpatch) 0;
#X array harm-struct 477 float 3;
#A 0 0 1 2 6 0 1 2 6 0 4 5 6 0 1 2 6 0 4 5 6 0 1 2 6 0 4 5 6 0 1 2
6 0 4 5 6 0 4 5 6 0 4 5 6 0 2 3 7 0 4 5 6 0 2 3 7 0 1 2 6 0 4 5 6 0
2 3 7 0 1 2 6 0 2 3 7 0 2 3 7 0 4 5 6 0 4 5 7 0 1 2 6 0 2 3 7 0 4 5
6 0 4 5 7 0 2 3 7 0 1 2 6 0 4 5 7 0 4 5 6 0 4 5 7 0 1 2 6 0 4 5 7 0
1 2 5 0 4 5 7 0 4 5 6 0 1 2 5 0 4 5 7 0 4 5 6 0 1 2 5 0 1 2 5 0 4 5
6 0 1 2 5 0 2 3 7 0 3 4 5 0 4 5 6 0 1 2 5 0 3 4 5 0 2 3 7 0 1 2 5 0
4 5 6 0 3 4 5 0 2 3 7 0 3 4 5 0 3 4 5 0 1 4 6 0 2 3 7 0 3 4 5 0 1 4
6 0 2 3 7 0 3 4 5 0 1 4 6 0 4 5 7 0 1 4 6 0 2 3 7 0 1 4 6 0 4 5 7 0
2 5 6 0 1 4 6 0 2 3 7 0 2 5 6 0 4 5 7 0 2 5 6 0 4 5 7 0 2 5 6 0 2 5
6 0 1 3 7 0 4 5 7 0 2 5 6 0 1 3 7 0 1 2 5 0 1 3 7 0 1 3 7 0 4 5 7 0
1 3 7 0 1 2 5 0 4 6 7 0 4 5 7 0 1 3 7 0 4 6 7 0 1 2 5 0 4 6 7 0 1 2
5 0 4 6 7 0 1 2 5 0 4 6 7 0 1 5 7 0 4 6 7 0 3 4 5 0 1 5 7 0 1 5 7 0
1 2 5 0 1 5 7 0 1 5 7 0 3 4 5 0 2 6 7 0 1 2 5 0 1 5 7 0 3 4 5 0 2 6
7 0 2 6 7 0 3 4 5 0 2 6 7 0 3 4 5 0 1 5 7 0 1 4 6 0 2 6 7 0 2 6 7 0
0 0 0 0;
#X coords 0 11 477 0 200 140 1 0 0;
#X restore 745 81 graph;
#X connect 0 0 32 0;
#X connect 1 0 9 0;
#X connect 1 1 33 0;
#X connect 2 0 3 0;
#X connect 2 0 5 0;
#X connect 3 0 2 1;
#X connect 4 0 2 0;
#X connect 5 0 1 0;
#X connect 6 0 2 1;
#X connect 8 0 28 0;
#X connect 9 1 8 0;
#X connect 19 0 21 0;
#X connect 20 0 19 0;
#X connect 20 0 28 0;
#X connect 24 0 29 0;
#X connect 26 0 25 0;
#X connect 28 0 0 0;
#X connect 29 0 4 0;
#X connect 30 0 31 0;
#X connect 32 0 37 0;
#X connect 33 0 34 0;
#X connect 35 0 28 0;
#X connect 37 0 42 0;
#X connect 37 1 41 1;
#X connect 38 0 49 1;
#X connect 39 1 48 0;
#X connect 39 1 50 0;
#X connect 41 0 44 0;
#X connect 42 0 41 0;
#X connect 42 1 49 0;
#X connect 42 1 45 0;
#X connect 43 0 46 0;
#X connect 44 0 38 0;
#X connect 44 0 43 0;
#X connect 47 0 49 0;
#X connect 49 0 39 0;
#X connect 50 0 40 0;
#X connect 50 0 43 1;
#X connect 50 1 49 1;
#X connect 52 0 53 0;
#X connect 53 0 54 0;
